<mxfile host="app.diagrams.net" agent="Mozilla/5.0 (Macintosh; Intel Mac OS X 10_15_7) AppleWebKit/537.36 (KHTML, like Gecko) Chrome/108.0.5359.95 Safari/537.36" version="24.7.12">
  <diagram name="第 1 页" id="a9zNuTtGVHFrjddqWxli">
    <mxGraphModel dx="884" dy="510" grid="0" gridSize="10" guides="1" tooltips="1" connect="1" arrows="1" fold="1" page="1" pageScale="1" pageWidth="827" pageHeight="1169" background="#000000" math="0" shadow="0">
      <root>
        <mxCell id="0" />
        <mxCell id="1" parent="0" />
        <mxCell id="ZO9EcA2WIQo7O_Em-ckx-2" value="&lt;font color=&quot;#ffffff&quot;&gt;接入层&lt;/font&gt;" style="rounded=0;whiteSpace=wrap;html=1;labelBackgroundColor=none;fillColor=none;strokeWidth=1;strokeColor=#FFFFFF;" vertex="1" parent="1">
          <mxGeometry x="30" y="100" width="102" height="90" as="geometry" />
        </mxCell>
        <mxCell id="ZO9EcA2WIQo7O_Em-ckx-3" value="&lt;font color=&quot;#ffffff&quot;&gt;业务层&lt;/font&gt;" style="rounded=0;whiteSpace=wrap;html=1;labelBackgroundColor=none;fillColor=none;strokeWidth=1;strokeColor=#FFFFFF;" vertex="1" parent="1">
          <mxGeometry x="30" y="209" width="100" height="353" as="geometry" />
        </mxCell>
        <mxCell id="ZO9EcA2WIQo7O_Em-ckx-4" value="" style="rounded=0;whiteSpace=wrap;html=1;labelBackgroundColor=none;fillColor=none;strokeWidth=1;strokeColor=#FFFFFF;" vertex="1" parent="1">
          <mxGeometry x="151" y="100" width="660" height="90" as="geometry" />
        </mxCell>
        <mxCell id="ZO9EcA2WIQo7O_Em-ckx-8" value="&lt;font color=&quot;#ffffff&quot;&gt;小程序&lt;/font&gt;" style="rounded=0;whiteSpace=wrap;html=1;labelBackgroundColor=none;fillColor=none;strokeWidth=1;strokeColor=#FFFFFF;" vertex="1" parent="1">
          <mxGeometry x="201" y="120.5" width="130" height="49" as="geometry" />
        </mxCell>
      </root>
    </mxGraphModel>
  </diagram>
</mxfile>
